<svg width="1920" height="1080" viewBox="0 0 1920 1080" fill="none" xmlns="http://www.w3.org/2000/svg">
  <defs>
    <linearGradient id="bg1" x1="0%" y1="0%" x2="100%" y2="100%">
      <stop offset="0%" style="stop-color:#0f0f23;stop-opacity:1" />
      <stop offset="50%" style="stop-color:#1a1a2e;stop-opacity:0.8" />
      <stop offset="100%" style="stop-color:#16213e;stop-opacity:0.6" />
    </linearGradient>
    
    <linearGradient id="accent1" x1="0%" y1="0%" x2="100%" y2="100%">
      <stop offset="0%" style="stop-color:#6366f1;stop-opacity:0.3" />
      <stop offset="100%" style="stop-color:#818cf8;stop-opacity:0.1" />
    </linearGradient>
    
    <linearGradient id="accent2" x1="0%" y1="0%" x2="100%" y2="100%">
      <stop offset="0%" style="stop-color:#10b981;stop-opacity:0.2" />
      <stop offset="100%" style="stop-color:#34d399;stop-opacity:0.05" />
    </linearGradient>
    
    <radialGradient id="glow1" cx="50%" cy="50%" r="50%">
      <stop offset="0%" style="stop-color:#6366f1;stop-opacity:0.4" />
      <stop offset="100%" style="stop-color:#6366f1;stop-opacity:0" />
    </radialGradient>
    
    <radialGradient id="glow2" cx="50%" cy="50%" r="50%">
      <stop offset="0%" style="stop-color:#10b981;stop-opacity:0.3" />
      <stop offset="100%" style="stop-color:#10b981;stop-opacity:0" />
    </radialGradient>
  </defs>
  
  <!-- Background -->
  <rect width="1920" height="1080" fill="url(#bg1)"/>
  
  <!-- Geometric shapes -->
  <g opacity="0.6">
    <!-- Large circles -->
    <circle cx="300" cy="200" r="150" fill="url(#glow1)"/>
    <circle cx="1600" cy="800" r="200" fill="url(#glow2)"/>
    
    <!-- Floating polygons -->
    <polygon points="800,100 900,150 850,250 750,200" fill="url(#accent1)"/>
    <polygon points="1200,300 1350,250 1400,400 1250,450" fill="url(#accent2)"/>
    <polygon points="400,600 550,550 600,700 450,750" fill="url(#accent1)"/>
    
    <!-- Tech grid lines -->
    <g stroke="rgba(99, 102, 241, 0.1)" stroke-width="1" fill="none">
      <line x1="0" y1="200" x2="1920" y2="200"/>
      <line x1="0" y1="400" x2="1920" y2="400"/>
      <line x1="0" y1="600" x2="1920" y2="600"/>
      <line x1="0" y1="800" x2="1920" y2="800"/>
      
      <line x1="200" y1="0" x2="200" y2="1080"/>
      <line x1="600" y1="0" x2="600" y2="1080"/>
      <line x1="1000" y1="0" x2="1000" y2="1080"/>
      <line x1="1400" y1="0" x2="1400" y2="1080"/>
    </g>
    
    <!-- Connected nodes -->
    <g stroke="rgba(16, 185, 129, 0.2)" stroke-width="2" fill="none">
      <line x1="150" y1="150" x2="300" y2="250"/>
      <line x1="300" y1="250" x2="500" y2="200"/>
      <line x1="500" y1="200" x2="700" y2="300"/>
      <line x1="1200" y1="400" x2="1400" y2="300"/>
      <line x1="1400" y1="300" x2="1600" y2="500"/>
    </g>
    
    <!-- Nodes -->
    <circle cx="150" cy="150" r="4" fill="#6366f1"/>
    <circle cx="300" cy="250" r="5" fill="#10b981"/>
    <circle cx="500" cy="200" r="4" fill="#f59e0b"/>
    <circle cx="700" cy="300" r="3" fill="#6366f1"/>
    <circle cx="1200" cy="400" r="5" fill="#10b981"/>
    <circle cx="1400" cy="300" r="4" fill="#f59e0b"/>
    <circle cx="1600" cy="500" r="6" fill="#6366f1"/>
    
    <!-- Floating particles -->
    <circle cx="100" cy="300" r="2" fill="rgba(99, 102, 241, 0.4)"/>
    <circle cx="250" cy="500" r="1.5" fill="rgba(16, 185, 129, 0.4)"/>
    <circle cx="450" cy="350" r="2.5" fill="rgba(245, 158, 11, 0.4)"/>
    <circle cx="650" cy="150" r="1" fill="rgba(99, 102, 241, 0.4)"/>
    <circle cx="850" cy="400" r="2" fill="rgba(16, 185, 129, 0.4)"/>
    <circle cx="1050" cy="250" r="1.5" fill="rgba(245, 158, 11, 0.4)"/>
    <circle cx="1250" cy="600" r="2.5" fill="rgba(99, 102, 241, 0.4)"/>
    <circle cx="1450" cy="150" r="1" fill="rgba(16, 185, 129, 0.4)"/>
    <circle cx="1650" cy="350" r="2" fill="rgba(245, 158, 11, 0.4)"/>
    <circle cx="1850" cy="500" r="1.5" fill="rgba(99, 102, 241, 0.4)"/>
    
    <!-- Abstract tech patterns -->
    <g stroke="rgba(255, 255, 255, 0.05)" stroke-width="1" fill="none">
      <path d="M50 50 Q 200 100 350 50 T 650 50"/>
      <path d="M1270 1030 Q 1420 980 1570 1030 T 1870 1030"/>
      <path d="M50 850 C 200 800 300 900 450 850 S 700 800 850 850"/>
      <path d="M1070 230 C 1220 180 1320 280 1470 230 S 1720 180 1870 230"/>
    </g>
    
    <!-- Hexagonal patterns -->
    <g stroke="rgba(99, 102, 241, 0.1)" stroke-width="1" fill="none">
      <polygon points="100,800 120,785 140,800 140,830 120,845 100,830"/>
      <polygon points="1700,200 1720,185 1740,200 1740,230 1720,245 1700,230"/>
      <polygon points="800,900 820,885 840,900 840,930 820,945 800,930"/>
    </g>
  </g>
  
  <!-- Overlay gradient for depth -->
  <rect width="1920" height="1080" fill="url(#bg1)" opacity="0.3"/>
</svg>
